<?xml version="1.0" encoding="utf-8"?>
<!-- Generator: Adobe Illustrator 27.9.0, SVG Export Plug-In . SVG Version: 6.00 Build 0)  -->
<svg version="1.1" id="レイヤー_1" xmlns="http://www.w3.org/2000/svg" xmlns:xlink="http://www.w3.org/1999/xlink" x="0px"
	 y="0px" viewBox="0 0 32 32" width="32" height="32" style="enable-background:new 0 0 32 32;" xml:space="preserve">
<style type="text/css">
	.st0{fill:#FFFFFF;}
</style>
<path id="Path_42651" d="M16,32c-1.1,0-2.2-0.1-3.2-0.3c-3.1-0.6-5.9-2.1-8.1-4.4c-0.7-0.7-1.4-1.5-2-2.4c-1.2-1.7-2-3.7-2.4-5.7
	c-0.4-2.1-0.4-4.3,0-6.4c0.4-2,1.2-4,2.4-5.7c1.7-2.6,4.2-4.6,7-5.8c1-0.4,2-0.7,3-0.9C14.8,0,17,0,19.1,0.4c2,0.4,4,1.2,5.7,2.4
	c2.6,1.7,4.6,4.2,5.8,7c0.4,1,0.7,2,0.9,3c0.4,2.1,0.4,4.3,0,6.4c-0.4,2-1.2,4-2.4,5.7C26.3,29.4,21.3,32,16,32z"/>
<path id="Path_42651_00000037694120941544494970000006884771686767992993_" class="st0" d="M17.6,14.7l6.2-7.2h-1.5L17,13.7
	l-4.3-6.2h-5l6.5,9.4l-6.5,7.5h1.5l5.6-6.6l4.5,6.6h4.9L17.6,14.7L17.6,14.7z M15.6,17l-0.7-0.9L9.7,8.6H12l4.2,6l0.7,0.9l5.5,7.8
	H20L15.6,17L15.6,17z"/>
</svg>
