<svg id="icon-line" xmlns="http://www.w3.org/2000/svg" xmlns:xlink="http://www.w3.org/1999/xlink" width="32" height="32" viewBox="0 0 32 32">
  <defs>
    <clipPath id="clip-path">
      <rect id="長方形_30421" data-name="長方形 30421" width="32" height="32" fill="none"/>
    </clipPath>
  </defs>
  <g id="グループ_47933" data-name="グループ 47933" clip-path="url(#clip-path)">
    <path id="パス_43431" data-name="パス 43431" d="M32,16A16,16,0,1,1,16,0,16,16,0,0,1,32,16" fill="rgba(0,0,0,0.87)"/>
    <path id="パス_43432" data-name="パス 43432" d="M26.67,15.068c0-4.78-4.792-8.668-10.68-8.668S5.307,10.288,5.307,15.068c0,4.285,3.8,7.873,8.933,8.552.349.075.823.229.941.527a2.171,2.171,0,0,1,.035.965s-.125.754-.153.915c-.046.27-.214,1.056.927.576a34.537,34.537,0,0,0,8.391-6.2h0a7.711,7.711,0,0,0,2.29-5.333" fill="#fff"/>
    <path id="パス_43433" data-name="パス 43433" d="M23.117,17.828a.2.2,0,0,0,.2-.2v-.757a.2.2,0,0,0-.2-.2H21.078v-.787h2.039a.2.2,0,0,0,.2-.2v-.757a.2.2,0,0,0-.2-.2H21.078v-.787h2.039a.2.2,0,0,0,.2-.2v-.758a.2.2,0,0,0-.2-.2h-3a.2.2,0,0,0-.2.2V17.62h0v0a.2.2,0,0,0,.2.2h3Z"/>
    <path id="パス_43434" data-name="パス 43434" d="M12.017,17.828a.2.2,0,0,0,.2-.2v-.757a.2.2,0,0,0-.2-.2H9.978v-3.7a.2.2,0,0,0-.2-.2H9.016a.2.2,0,0,0-.2.2V17.62h0v0a.2.2,0,0,0,.2.2h3Z"/>
    <path id="パス_43435" data-name="パス 43435" d="M13.823,12.758h-.758a.2.2,0,0,0-.2.2v4.662a.2.2,0,0,0,.2.2h.758a.2.2,0,0,0,.2-.2V12.962a.2.2,0,0,0-.2-.2"/>
    <path id="パス_43436" data-name="パス 43436" d="M18.98,12.758h-.758a.2.2,0,0,0-.2.2v2.77l-2.133-2.881-.017-.021h0l-.012-.013,0,0-.011-.011-.006,0-.01-.007-.007,0-.011-.007-.006,0-.012-.005-.007,0-.012,0-.008,0H15.75l-.008,0h-.011l-.011,0h-.761a.2.2,0,0,0-.2.2v4.662a.2.2,0,0,0,.2.2h.758a.2.2,0,0,0,.2-.2V14.857l2.135,2.883a.233.233,0,0,0,.053.051l0,0,.013.007.006,0,.01,0,.01,0,.006,0,.014,0h0a.19.19,0,0,0,.054.007h.753a.2.2,0,0,0,.2-.2V12.962a.2.2,0,0,0-.2-.2"/>
  </g>
</svg>
