<svg xmlns="http://www.w3.org/2000/svg" width="24" height="23.858" viewBox="0 0 24 23.858">
  <g id="search" transform="translate(-922.999 -36)">
    <path id="svg68" d="M17.286,16.829a8.105,8.105,0,1,1,2.22-5.56,8.1,8.1,0,0,1-.154,1.572.889.889,0,1,0,1.744.344A9.894,9.894,0,0,0,11.328,1.373a9.9,9.9,0,1,0,7.248,16.679.888.888,0,0,0-1.289-1.221Zm1.478,3.081,5.095,5.062a.888.888,0,1,0,1.253-1.26l-5.095-5.061a.889.889,0,0,0-1.253,1.262Z" transform="translate(921.625 34.627)" fill="rgba(0,0,0,0.87)"/>
  </g>
</svg>
